<svg xmlns="http://www.w3.org/2000/svg" version="1.1" viewBox="-5.0 -10.0 110.0 135.0">
 <g>
  <path d="m85.684 44.652c2.0312 1.7383 4.0586 3.4688 6.0898 5.1992-0.82031-1.7305-1.5586-3.5391-2.4688-5.2383-5.1797-9.7695-18.621-13.551-28.961-12.66-1 0.078125-4.8398 1.3516-5.4805 0.46094-1.2812-1.8008 4.2383-2.3281 5.1016-2.4688 3.5703-0.53906 5.7383-1.9297 8.2305-4.4219 0.58984-0.58984 5.9102-5.6992 6.7109-6.4492-1.1211 0.75-11.102 5.1211-11.102 5.1211 3.6719-3.6719 7.4219-6.9297 12.09-9.3008 4.0898-2.0781 10.102-4.8906 14.781-4.9297-2.5195 0.019531-5.0703-0.12109-7.5898 0-3.9883 0.19141-8.1484 0.53125-12.07 1.2109-5.0508 0.87109-10.16 1.5586-14.91 3.5898-3.0195 1.3008-5.9609 2.8086-8.9297 4.2188l2.6719-3.3086c1.9492-2.4297 3.7891-4.9805 6.1797-7.0117-0.76172 0.64063-2.6406 0.53906-3.6016 0.80078-1.7188 0.48047-3.3516 1.2383-5.0312 1.8281-3.7617 1.3086-7.8594 2.9102-10.172 6.3398-2.3086 3.4102-3.5312 7.3906-5.2812 11.102-0.55859 1.1914-1 2.4805-1.6719 3.6094-0.19922-2.8789-0.33984-5.8203 0.32812-8.6602 0.62109-2.6094 2.1094-4.8281 3.3086-7.1914-0.30078 0.58984-1.3594 1.1914-1.8516 1.6484-0.60938 0.55078-1.1914 1.1289-1.75 1.7188-3.2109 3.4883-4.7617 8.0898-5.8086 12.629-1 4.3008-2.25 8.7383-2.1797 13.18 0-0.48047-0.39844-1.1211-0.55859-1.5781-0.28906-0.82031-0.57812-1.6406-0.82031-2.4805-0.57031-2.1289-0.35938-4.1484 0.25-6.25-0.19922 0.66016-0.78906 1.3789-1.1016 2.0195-1.1797 2.3906-2.3789 4.8789-2.8281 7.5312-0.050781 0.26953-0.089843 0.55078-0.12891 0.82812-0.10938 1.0508-0.089844 2.1016 0.10156 3.1719 0.23828 1.2812 1.0703 2.5508 0.73047 3.9102-0.42188 1.6797-2.3203 2.8789-3.5781 3.8984-1.3984 1.1289-2.7305 2.4609-4.3203 3.3203-1.9805 1.0703-3.7695 0.73047-5.6992-0.23047 0.5 1.3984 1.5781 2.3711 2.6914 3.2891 1.3398 1.1094 2.7695 2.0781 4.1484 3.1484 0.76953 0.60938 1.5117 1.25 2.2109 1.9609-0.42969-0.76953-0.89062-1.5312-1.2891-2.3008 0.53906 0.10156 0.91016 0.64844 1.3008 1 0.42969 0.35938 0.94922 0.62109 1.2617 1.1016-0.33984-0.85937-1.0586-1.7695-1.0391-2.7383 1.2383 0.14844 2.2109 1.3281 3.2891 1.8281-0.19922-0.37109-1.2617-2.2891-0.37109-2.2188 0.80078 0.058594 1.7383 1.6602 2.2305 2.2188-0.35938-1.9102-0.33984-3.6797 0.82812-5.3203 1.0781-1.5117 2.5898-2.1289 4.3906-2.2695 1.2695-0.089843 2.5508-0.089843 3.8086-0.10937-0.98047-0.48828-2.9102-1.9883-1.0586-2.8906 1.6094-0.76953 3.4883 0.58984 4.7109 1.5-0.73047 1.0508-2.0312 1.9883-3.1211 2.6211-0.92969 0.53906-2.3281 0.69922-3.0391 1.5391 0.89844 0.78906 0.019532 1.8398-0.69141 2.4609-0.26172 0.23047-0.82812 0.67969-1.1914 0.37109-0.35156-0.30859-0.19141-1.3594-0.19141-1.7617-0.30078 0.42188-0.55859 0.89062-0.82813 1.3398l-1.1406 3.2109c-0.17969-0.19141-0.30859-0.42187-0.5-0.62109-0.050782 0.23828-0.21094 3.3281-0.69922 3.1094-0.64062-0.28906-0.64062-1.1602-1.0508-1.6484-0.39844 0.64844-0.73047 2.3711-1.3789 2.7891-0.69922 0.46094-1.0703-1.5586-1.1914-1.9883-0.078125 0.87891-0.46875 1.7812-0.30078 2.6719 0.12891 0.62109 0.51172 0.89063 0.92969 1.3398 0.16016 0.17188 2.1289 2.1602 2.1289 2.3086 1-1.1289 1.6992-2.5391 3.4297-2.0195 0.39844 0.12109 1.5703 0.35156 1.7188 0.78906-0.5-1.5508 0.48828-2.2188 1.4805-3.2617 1.1797-1.2617 2.2617-1.4883 3.9688-1.4609-0.98047-0.16016-2.6406-0.32031-3-1.4805-0.39844-1.3398 1.1016-2.8594 1.9102-3.7383 1.9883-2.1797 4.25-5 7.1602-5.9219 1.7891-0.55859 3.7305-0.69141 5.5703-1.0195-0.48047-1.8281-0.75-3.4688 0.10938-5.2188 0.71094-1.4805 1.9297-2.6914 3.1719-3.7383 0.89844-0.73828 1.8984-1.3711 2.8008-2.1289-0.57031 0.28125-1.1406 0.64062-1.75 0.83984-2.1289 0.67969-4.6016-0.058594-6.75-0.25 0.67188-1.3398 1.7812-2.4805 2.5195-3.7812-1.5586 0.42969-3.0312 1.2305-4.5898 1.7188 0.92187-1.1484 2.0117-2.1406 2.9414-3.2695-0.21875 0.28906-1.1797 0.37891-1.5195 0.48047-0.53125 0.16016-1.0703 0.33984-1.5391 0.62891 0.30078-1.0703 0.73047-2.1484 1.1602-3.1914 0.55078-1.3516 0.69922-2.8086 1.3398-4.1406 0.48828-1.0312 1.1484-1.9805 1.9609-2.7812 0.21094-0.19141 0.42969-0.37109 0.67187-0.53906 1.7109-1.2109 4.2188-1.7812 6.1797-1.7383-1.1797 1.1719-2.2109 2-3.0703 3.4297-0.94922 1.5703-2.3398 3.0195-3.5195 4.3008 2.1211 0 5.1797 0.39844 6.5586-1.5117-0.37109 0.76172-0.37891 1.6094-0.71094 2.3906-0.30859 0.78125-0.78906 1.5117-1.2383 2.1992-1 1.4609-2.1992 2.4883-3.75 3.3203 1.3086 0 2.6289 0.070312 3.9414 0.089844 2.6484 0.039062 4.2188-1.75 6.4102-2.8594 0.76953-0.39844 1.6094-0.62891 2.7383-0.60156 1.8906 0.039063 3.75 0.71094 5.5117 1.3789 3.0586 1.1484 5.7188 3.4414 7.5781 6.1094 7.8008 11.172-2.2188 25-8.9414 33.801 2.8203-2.7305 5.5-5.6602 8.2188-8.4883 1.3008-1.3594 2.5195-2.7617 3.5586-4.3008-0.35938 1.2812-0.78125 2.5195-1.3516 3.6406-1.1016 2.1602-3.1406 4.0391-4.6914 5.8984 0 0-11.551 11.109-10.641 10.781 4.1719-1.5195 8.2109-3.3398 12.262-5.1484 3.8789-1.7383 7.8516-3.4688 11.172-6.1914 5.2188-4.2617 8.3906-11.469 9.0195-18.102 0.89062-9.2188-5.2188-15.23-11.09-21.309 3.5 1.6172 6.5625 2.7344 9.5625 5.2969zm-54.023-1.5625c-0.53125 1.3281-1.5586 2.3906-2.6211 3.3398-0.30078 0.26172-2.8984 2.1602-2.8984 2.5781-0.51953-1.2812 0.30078-3.2891 0.87109-4.4219 1.1602-2.3398 3.25-4.0508 4.6719-6.2383 0.011718-0.011718 0.011718-0.011718 0.011718-0.019531v0.03125c-0.29297 1.4727 0.48828 3.3125-0.035156 4.7305z"/>
  <path d="m56.395 48.113c-0.90234 0.30078-1.6641 0.82031-2.5781 1.1836 2.832-0.14844 6.2461-0.67188 8.7773 0.94922 2.8477 1.8281 4.0781 4.2227 4.1602 7.5156 0.17578 7.1055-4.8633 13.289-8.4883 18.949l-5.7148 8.543 3.8477-11.477c0.62891-2.2383 1.3086-4.4688 1.7656-6.75-0.26953 1.0547-1.4375 2.3008-2.0625 3.1875-0.61719 0.87891-1.25 1.7461-1.9297 2.582-1.2266 1.5078-2.6055 2.8945-4.1445 4.082-1.4883 1.1484-3.1172 2.0938-4.3594 3.5352-1.6914 1.9648-3.207 4.375-3.6133 6.9805-0.19141 1.2227-0.54688 2.7031-0.37109 3.9414-0.47266-3.3594-1.0234-6.8047 0.16797-10.145 0.98047-2.7461 2.875-4.6094 5.1367-6.3516 2.7266-2.1016 4.8945-4.582 7.1797-7.1367 3.1641-3.5352 3.668-9.4531 0.95312-13.473-1.2539-1.8555-3.3867-2.9141-5.5508-3.2148-1.9766-0.27344-5.168 0.34766-6.4414 2.1055 1.3867-1.9141 2.9375-3.6055 4.8359-5.0195 1.9062-1.418 3.7188-2.9766 6.1406-3.3945 2.2188-0.38672 4.3555 0.34766 6.082 1.7422 0.99609 0.80469 1.8203 1.7773 2.6719 2.7266-0.32812-0.36328-1.5312-0.64062-2.0625-0.83594-1.1484-0.42578-2.3867-0.59766-3.6016-0.42188-0.28516 0.042969-0.54687 0.10938-0.80078 0.19531z"/>
  <path d="m46.84 60.012c0.70703 0.69141 1.8789 1.3711 2.1836 1.5625 0.75 0.47656 1.5234 0.94141 2.2344 1.4766 0 0-0.10156-0.20703-3.707-0.62109-3.6055-0.41016-4.9844-1.1328-6.5586-0.41016-1.5742 0.72266-1.2695 1.543-0.44531 2.1602 0.82422 0.62109 3.3984 2.0625 3.3984 2.0625s-4.7383-0.92578-6.6953-0.92578-1.1328-0.30859-3.2969 0.51562-5.0469 2.2656-5.0469 2.2656 5.0469-4.0156 6.4883-4.5312c1.4414-0.51562 4.6367-1.9062 5.0469-2.1367 0.41016-0.23047 2.5742-0.64453 2.5742-0.64453l-2.8828-1.6992 2.7812-0.76953-0.41016-2.3711c0.039063 0.23438 4.3008-0.77734 4.6641-0.83203 3.1914-0.46094 5.6328 1.7578 7.5898 3.9766-1.4414-0.90625-3.3477-1.2734-5.0312-1.2305-1.0508 0.019531-4.6406 0.44141-2.8867 2.1523z"/>
  <path d="m65.984 29.262c4.7578-2.7617 8.7773-7.0352 14.125-8.2891 5.2891-1.2422 10.816 0.76562 15.531 3.4648-3.7695-1.0898-7.9141-0.83594-11.523 0.70703-2.5156 1.0742-4.8242 2.7617-7.5273 3.168 2.7188 0.66016 5.0352 0.52734 7.5781 1.9023 2.4023 1.3008 4.5234 3.0938 7.0195 4.2266 1.2227 0.55469 2.5547 0.66797 2.5547 0.66797s-2.332 0.33203-5.1094-0.10938c-2.7695-0.44531-5.6523-1.2188-5.668-1.2227-1.7969-0.48438-3.5312-1.4297-5.3164-2.0039-4.5586-1.4609-9.1797-2.3984-13.941-1.3516 0.78125-0.33594 1.5391-0.73047 2.2773-1.1602z"/>
  <path d="m87.141 50.316c1.6797 4.6445 2.3672 9.7539 1.4766 14.562-0.65234 3.5156-2 7.0078-3.2812 10.336-0.54688 1.4141-1.9453 3.1289-2.1914 4.5156 0.16016 0.011719 0.24609-0.066407 0.37109-0.17578 1.1094-1 3.1094-2.8906 5-5.1094 3.8281-4.5 7.9766-12.293 5.4609-18.355-1.75-4.2148-6.5391-5.8008-8.5703-9.7539 0.65234 1.2734 1.2383 2.6055 1.7344 3.9805z"/>
 </g>
</svg>