<svg xmlns="http://www.w3.org/2000/svg" xmlns:xlink="http://www.w3.org/1999/xlink" xml:space="preserve" version="1.1" shape-rendering="geometricPrecision" text-rendering="geometricPrecision" image-rendering="optimizeQuality" fill-rule="evenodd" clip-rule="evenodd" viewBox="0 0 3300000 4125000" x="0px" y="0px"><g><path fill="black" d="M2791822 602229c-103405,13759 -307994,65442 -613805,155088l0 0c162806,2222 321207,12122 475204,29700 -79201,6587 -193597,24205 -343190,52814 171615,105587 294781,249684 369616,432290 -151814,-147410 -302537,-245280 -452129,-293689l-3275 3274c158402,189232 237602,353129 237602,491730 0,131975 -61622,246410 -184827,343189 15396,-46187 23113,-95687 23113,-148501 0,-107809 -28609,-208993 -85788,-303589 -52813,92375 -129831,164988 -231014,217801 -22022,10992 -117710,56088 -287103,135289 -116618,33013 -218893,45096 -306902,36326 52774,-13213 92375,-35235 118801,-66027l-3313 -3274c-145188,26387 -231015,45096 -257402,56088 -94597,37378 -155088,95687 -181515,174888 -8769,61622 24205,117710 99001,168301 -72574,0 -149592,-61583 -230976,-184788 -4404,17578 -6626,34105 -6626,49500 0,50592 19800,96779 59401,138601 85826,68210 221115,97910 405903,89101 -74796,35196 -169393,57179 -283789,65988 8808,8808 24204,18708 46187,29700 63805,19800 128701,29700 194728,29700 120983,0 212306,-35196 273889,-105588 10991,-15395 14304,-46187 9900,-92413 -15396,-50592 -51683,-85788 -108901,-105588 107810,10991 195819,57179 263989,138601 50631,-19800 112214,-34105 184828,-42913 -30792,-13175 -73705,-34105 -128701,-62675 46187,-2222 101183,2183 164988,13174 90192,15396 141914,24205 155127,26426 -70431,-77018 -203536,-169431 -399316,-277202 330015,70392 622613,215580 877794,435604 90192,99000 135327,212267 135327,339876 0,129793 -64935,249724 -194728,359716 52814,-65987 79201,-145188 79201,-237602 0,-74796 -16487,-141914 -49500,-201314l-29701 -42875c-6587,21983 -24204,53866 -52774,95688 -13213,-187010 -136418,-280515 -369616,-280515 -70392,0 -128701,16526 -174927,49500 -32975,35196 -42875,63805 -29701,85827 15435,32974 46227,52774 92414,59400 15396,0 42913,-12121 82514,-36326 -6587,44005 -26387,68209 -59401,72614 -19800,8808 -44004,13213 -72613,13213 -28609,0 -52814,-4405 -72614,-13213l-3274 6587c41783,44004 102275,69300 181515,75926 41783,4366 109992,4366 204588,0 -88009,35196 -199093,46188 -333328,32975 -151776,-13175 -252998,-79201 -303590,-198002 -28609,17617 -91283,37418 -188101,58855 237602,146864 353089,312944 346502,498862 -59946,-116033 -156764,-212851 -289830,-291506 -64351,-37418 -189232,-92960 -373475,-167210l-3313 3313c13759,21983 54451,49500 122114,82513 -92414,-15434 -227702,-80331 -405903,-194727 -30792,70392 -60492,139692 -89101,207902 -41783,74796 -92413,132014 -151814,171614 52813,-92414 79201,-196910 79201,-313490 0,-114435 -28570,-211214 -85788,-290415l-9900 9900c-4404,17579 -12083,73705 -23113,168302 -61583,-129793 -92375,-232107 -92375,-306903 0,-41822 6587,-81422 19800,-118801 35196,-153997 166080,-300315 392690,-438916 107810,-8809 185919,-29700 234289,-62714 -57179,-6587 -117671,-40691 -181475,-102275 96779,24205 195780,36288 297002,36288 200184,0 362990,-47279 488378,-141914 44005,-43966 66026,-84697 66026,-122075 0,-15396 -2221,-29701 -6626,-42914 -35196,-68209 -89100,-103405 -161675,-105588l-6626 9901 75927 122075c-26427,-28570 -53905,-51684 -82514,-69301l-3313 6626c13213,57179 19800,102275 19800,135288 0,15396 -1091,27518 -3274,36287 -24204,-81383 -67118,-140783 -128701,-178201 -6626,72614 -38509,127610 -95727,165027 -46187,17579 -101183,21983 -164988,13174 -105588,-15395 -161714,-23074 -168301,-23074 -44005,0 -82514,9900 -115488,29700 -17618,4405 -44005,24205 -79201,59401 -35196,35196 -63805,52774 -85827,52774 -13174,0 -27478,-3274 -42874,-9900 -44005,-32974 -64896,-57179 -62713,-72574 2182,-52814 26387,-96818 72613,-132014 48370,-8809 115488,-33014 201276,-72614 -8770,-26387 5495,-48370 42913,-65987 72614,-10992 140823,-56088 204589,-135289 11030,-2221 22022,-8808 33013,-19800 0,-19800 -21983,-40691 -65988,-62713 -37417,-6587 -88009,10991 -151814,52813 48409,-85826 122114,-124296 221115,-115527 32974,2222 74796,8809 125388,19801 178201,-169393 382790,-290377 613805,-362990l-141914 115488c-57179,46226 -101184,91322 -131975,135327 21983,2182 52774,9900 92374,23074 -13174,2221 -46187,8809 -99000,19800 -39601,8809 -64897,29700 -75888,62713l3313 6588c50592,-19801 158401,-43966 323390,-72575 -2183,4404 -10446,10446 -24751,18124 -14304,7717 -20345,15981 -18163,24750 242006,-50591 526926,-71483 854720,-62674zm-1402498 270576c-88009,13213 -169393,55035 -244228,125427l108901 3274c8809,-15396 53905,-58270 135327,-128701z"/></g><text x="0" y="3300015" fill="#FFFFFF" font-size="5px" font-weight="bold" font-family="'Helvetica Neue', Helvetica, Arial-Unicode, Arial, Sans-serif">Created by Arfi</text><text x="0" y="3300020" fill="#000000" font-size="5px" font-weight="bold" font-family="'Helvetica Neue', Helvetica, Arial-Unicode, Arial, Sans-serif">from the Noun Project</text></svg>